# xmcd
#
# Track frame offsets:
#	150
#	57912
#	94517
#	131028
#	155833
#	171016
#
# Disc length: 2586 seconds
#
# Revision: 1
# Processed by: cddbd v1.5.2PL0 Copyright (c) Steve Scherf et al.
# Submitted via: audiograbber 1.83.01
#
DISCID=4a0a1806
DTITLE=Grateful Dead - 82-08-03 Starlight Theatre, Kansas City MO
DYEAR=1900
DGENRE=
TTITLE0=He's Gone
TTITLE1=The Other One
TTITLE2=Stella Blue
TTITLE3=Sugar Magnolia
TTITLE4=Sunshine Daydream
TTITLE5=Casey Jones
EXTD=
EXTT0=
EXTT1=
EXTT2=
EXTT3=
EXTT4=
EXTT5=
PLAYORDER=
